<?xml version="1.0" standalone="no"?>
<!DOCTYPE svg PUBLIC "-//W3C//DTD SVG 20010904//EN"
 "http://www.w3.org/TR/2001/REC-SVG-20010904/DTD/svg10.dtd">
<svg version="1.0" xmlns="http://www.w3.org/2000/svg"
 width="600.000000pt" height="478.000000pt" viewBox="0 0 600.000000 478.000000"
 preserveAspectRatio="xMidYMid meet">
<metadata>
Created by potrace 1.15, written by Peter Selinger 2001-2017
</metadata>
<g transform="translate(0.000000,478.000000) scale(0.100000,-0.100000)"
fill="#000000" stroke="none">
<path d="M3578 3373 c-37 -55 -77 -148 -78 -181 0 -12 -18 -46 -41 -74 -48
-62 -66 -95 -86 -160 -16 -55 -16 -53 12 -62 17 -5 23 0 34 31 11 31 38 80 82
145 3 4 19 2 36 -7 64 -32 89 -31 128 8 56 56 45 91 -36 117 -24 7 -46 15 -47
16 -8 6 62 125 89 151 37 36 36 46 -1 38 -22 -5 -32 -3 -36 9 -10 25 -21 19
-56 -31z"/>
<path d="M1682 3052 c3 -23 -1 -27 -24 -30 -31 -4 -37 -20 -10 -28 57 -17 134
-52 184 -83 l57 -35 -40 -43 c-21 -23 -39 -48 -39 -56 0 -39 71 -87 130 -87
24 0 41 9 66 37 19 20 34 43 34 49 0 10 7 10 32 2 44 -16 143 -72 188 -108 42
-33 55 -37 46 -15 -3 9 0 15 9 15 30 0 13 21 -57 71 -71 50 -201 119 -224 119
-6 0 -42 25 -79 55 -69 57 -172 121 -238 149 l-38 15 3 -27z"/>
<path d="M4423 2541 c-29 -10 -70 -30 -93 -46 -53 -36 -155 -188 -107 -159 6
5 20 18 30 30 31 39 115 74 178 74 50 0 59 3 73 25 12 18 14 30 7 44 -9 16 -7
17 15 13 26 -5 74 15 74 30 0 15 -124 8 -177 -11z"/>
<path d="M3690 2429 c0 -33 -6 -51 -20 -64 -26 -24 -25 -38 3 -50 15 -7 23
-20 25 -42 4 -40 27 -44 36 -7 6 23 11 26 36 20 35 -6 35 -7 15 41 -12 29 -13
43 -4 70 13 41 6 52 -23 34 -18 -11 -23 -10 -44 16 l-23 28 -1 -46z"/>
<path d="M2798 2398 c3 -36 -1 -47 -22 -67 -33 -31 -33 -42 4 -63 24 -14 30
-24 30 -53 0 -45 24 -47 39 -4 9 27 15 31 41 27 35 -5 38 7 15 53 -13 24 -14
37 -5 70 13 48 9 56 -25 41 -21 -10 -27 -8 -44 13 -27 36 -37 31 -33 -17z"/>
<path d="M4683 1751 c-13 -33 -22 -42 -49 -47 -39 -7 -42 -16 -14 -51 14 -18
20 -41 20 -74 0 -27 3 -49 6 -49 3 0 18 7 34 16 26 16 29 16 51 0 35 -24 39
-21 39 33 0 33 6 56 20 74 28 35 25 44 -14 51 -28 5 -37 13 -46 41 -17 50 -29
52 -47 6z"/>
<path d="M3503 1608 c-26 -19 -57 -32 -87 -35 -43 -5 -45 -7 -39 -32 3 -14 7
-28 9 -30 2 -2 -10 -21 -26 -41 -17 -21 -30 -41 -30 -45 0 -8 45 -2 71 9 10 5
20 -1 29 -19 18 -34 26 -32 51 16 14 29 32 46 60 58 44 18 50 38 14 47 -14 3
-25 9 -25 13 1 3 5 25 9 49 5 23 8 42 7 42 0 -1 -20 -15 -43 -32z"/>
<path d="M2008 1505 c-6 -14 -23 -27 -39 -30 -34 -8 -36 -16 -11 -38 13 -12
17 -26 14 -49 -4 -29 -3 -31 19 -24 13 5 31 8 39 8 8 0 26 -3 39 -8 22 -7 23
-5 19 24 -3 23 1 37 14 49 25 22 23 30 -11 38 -16 3 -33 16 -39 30 -7 14 -16
25 -22 25 -6 0 -15 -11 -22 -25z"/>
<path d="M3006 1459 c-10 -25 -25 -40 -46 -47 -36 -13 -36 -15 -9 -53 16 -23
19 -38 14 -69 -7 -44 4 -51 39 -25 17 13 22 13 42 0 38 -25 46 -19 39 25 -5
31 -2 46 14 69 12 16 21 32 21 35 0 3 -16 12 -35 20 -19 8 -35 21 -35 29 0 7
-6 22 -14 33 -14 18 -15 17 -30 -17z"/>
</g>
</svg>
